<?xml version="1.0" encoding="UTF-8" standalone="no"?>
<!-- Created with Inkscape (http://www.inkscape.org/) -->

<svg
   xmlns:dc="http://purl.org/dc/elements/1.1/"
   xmlns:cc="http://creativecommons.org/ns#"
   xmlns:rdf="http://www.w3.org/1999/02/22-rdf-syntax-ns#"
   xmlns:svg="http://www.w3.org/2000/svg"
   xmlns="http://www.w3.org/2000/svg"
   xmlns:sodipodi="http://sodipodi.sourceforge.net/DTD/sodipodi-0.dtd"
   xmlns:inkscape="http://www.inkscape.org/namespaces/inkscape"
   width="53.627487mm"
   height="18.980473mm"
   viewBox="0 0 53.627487 18.980473"
   version="1.1"
   id="svg8"
   inkscape:version="0.92.4 (5da689c313, 2019-01-14)"
   sodipodi:docname="logo.svg">
  <defs
     id="defs2">
    <marker
       inkscape:stockid="Arrow2Send"
       orient="auto"
       refY="0"
       refX="0"
       id="Arrow2Send"
       style="overflow:visible"
       inkscape:isstock="true">
      <path
         id="path860"
         style="fill:#000000;fill-opacity:1;fill-rule:evenodd;stroke:#000000;stroke-width:0.625;stroke-linejoin:round;stroke-opacity:1"
         d="M 8.7185878,4.0337352 -2.2072895,0.01601326 8.7185884,-4.0017078 c -1.7454984,2.3720609 -1.7354408,5.6174519 -6e-7,8.035443 z"
         transform="matrix(-0.3,0,0,-0.3,0.69,0)"
         inkscape:connector-curvature="0" />
    </marker>
  </defs>
  <sodipodi:namedview
     id="base"
     pagecolor="#ffffff"
     bordercolor="#666666"
     borderopacity="1.0"
     inkscape:pageopacity="0.0"
     inkscape:pageshadow="2"
     inkscape:zoom="4"
     inkscape:cx="49.88818"
     inkscape:cy="9.2311198"
     inkscape:document-units="mm"
     inkscape:current-layer="layer1"
     showgrid="false"
     inkscape:window-width="2560"
     inkscape:window-height="1377"
     inkscape:window-x="2552"
     inkscape:window-y="-8"
     inkscape:window-maximized="1"
     fit-margin-top="0"
     fit-margin-left="0"
     fit-margin-right="0"
     fit-margin-bottom="0" />
  <metadata
     id="metadata5">
    <rdf:RDF>
      <cc:Work
         rdf:about="">
        <dc:format>image/svg+xml</dc:format>
        <dc:type
           rdf:resource="http://purl.org/dc/dcmitype/StillImage" />
        <dc:title></dc:title>
      </cc:Work>
    </rdf:RDF>
  </metadata>
  <g
     inkscape:label="Layer 1"
     inkscape:groupmode="layer"
     id="layer1"
     transform="translate(-26.584675,-137.58653)">
    <g
       aria-label="PoseiDAT"
       style="font-style:normal;font-weight:normal;font-size:11.90625px;line-height:125%;font-family:sans-serif;letter-spacing:0px;word-spacing:0px;fill:#000000;fill-opacity:1;stroke:none;stroke-width:0.26458332px;stroke-linecap:butt;stroke-linejoin:miter;stroke-opacity:1"
       id="text817">
      <path
         d="m 28.345569,153.36905 v -3.429 c 0.178593,0.0357 0.392906,0.0476 0.642937,0.0476 1.369219,0 3.464719,-0.55959 3.464719,-3.07181 0,-0.84534 -0.333375,-1.58353 -0.881063,-2.04787 -0.583406,-0.50007 -1.452562,-0.72628 -2.607468,-0.72628 -1.012032,0 -1.797844,0.0833 -2.369344,0.1905 v 9.03684 z m 0,-7.78669 c 0.154781,-0.0357 0.404812,-0.0714 0.762,-0.0714 0.976312,0 1.595437,0.51197 1.595437,1.48829 0,0.98821 -0.642937,1.60734 -1.738312,1.60734 -0.261938,0 -0.452438,-0.0119 -0.619125,-0.0476 z"
         style="font-style:normal;font-variant:normal;font-weight:normal;font-stretch:normal;font-family:'Adobe Gothic Std';-inkscape-font-specification:'Adobe Gothic Std';stroke-width:0.26458332px"
         id="path1109"
         inkscape:connector-curvature="0" />
      <path
         d="m 36.401449,146.59439 c -1.797844,0 -3.14325,1.26207 -3.14325,3.48853 0,2.15504 1.285875,3.4171 3.071813,3.4171 1.476375,0 3.095625,-0.97631 3.095625,-3.50044 0,-2.01216 -1.166813,-3.40519 -3.024188,-3.40519 z m 1.23825,3.44091 c 0,1.17872 -0.452437,2.16694 -1.285875,2.16694 -0.85725,0 -1.309687,-0.97632 -1.309687,-2.15503 0,-1.01204 0.345281,-2.15504 1.321593,-2.15504 0.904875,0 1.273969,1.10729 1.273969,2.14313 z"
         style="font-style:normal;font-variant:normal;font-weight:normal;font-stretch:normal;font-family:'Adobe Gothic Std';-inkscape-font-specification:'Adobe Gothic Std';stroke-width:0.26458332px"
         id="path1111"
         inkscape:connector-curvature="0" />
      <path
         d="m 40.303722,153.04758 c 0.440532,0.26194 1.143,0.44053 1.869282,0.44053 1.654968,0 2.607468,-0.83344 2.607468,-2.0955 0,-0.91678 -0.523875,-1.55972 -1.643062,-2.02406 -0.762,-0.32147 -1.012031,-0.51197 -1.012031,-0.88106 0,-0.35719 0.28575,-0.63103 0.821531,-0.63103 0.500062,0 0.964406,0.1905 1.250156,0.34528 l 0.333375,-1.23825 c -0.381,-0.20241 -0.964406,-0.3691 -1.643062,-0.3691 -1.476375,0 -2.428875,0.90488 -2.428875,2.0955 0,0.72628 0.452437,1.42875 1.690687,1.92882 0.726281,0.30956 0.9525,0.52387 0.9525,0.92868 0,0.40482 -0.297656,0.66675 -0.916781,0.66675 -0.547688,0 -1.202531,-0.23812 -1.547813,-0.44053 z"
         style="font-style:normal;font-variant:normal;font-weight:normal;font-stretch:normal;font-family:'Adobe Gothic Std';-inkscape-font-specification:'Adobe Gothic Std';stroke-width:0.26458332px"
         id="path1113"
         inkscape:connector-curvature="0" />
      <path
         d="m 51.273658,150.58299 c 0.03572,-0.1905 0.04763,-0.44053 0.04763,-0.70247 0,-2.14313 -1.04775,-3.28613 -2.655094,-3.28613 -1.940719,0 -3.036094,1.64307 -3.036094,3.54807 0,2.05978 1.166813,3.34565 3.214688,3.34565 0.821531,0 1.595437,-0.14287 2.143125,-0.381 l -0.250032,-1.21444 c -0.452437,0.15479 -0.964406,0.27385 -1.61925,0.27385 -0.9525,0 -1.762125,-0.45244 -1.80975,-1.58353 z m -3.964782,-1.22635 c 0.04763,-0.65484 0.404813,-1.5359 1.250157,-1.5359 0.869156,0 1.143,0.84534 1.131093,1.5359 z"
         style="font-style:normal;font-variant:normal;font-weight:normal;font-stretch:normal;font-family:'Adobe Gothic Std';-inkscape-font-specification:'Adobe Gothic Std';stroke-width:0.26458332px"
         id="path1115"
         inkscape:connector-curvature="0" />
      <path
         d="m 54.366678,144.92752 c 0,-0.54769 -0.381,-0.9406 -0.9525,-0.9406 -0.547687,0 -0.940594,0.39291 -0.940594,0.9406 0,0.53578 0.381,0.94059 0.940594,0.94059 0.547688,0 0.9525,-0.36909 0.9525,-0.94059 z m -1.821656,1.80975 v 6.63178 h 1.762125 v -6.63178 z"
         style="font-style:normal;font-variant:normal;font-weight:normal;font-stretch:normal;font-family:'Adobe Gothic Std';-inkscape-font-specification:'Adobe Gothic Std';stroke-width:0.26458332px"
         id="path1117"
         inkscape:connector-curvature="0" />
      <path
         d="m 55.988905,153.33333 c 0.464343,0.0595 1.143,0.11906 1.988343,0.11906 1.595438,0 2.869407,-0.36909 3.702844,-1.11918 0.702469,-0.63104 1.381125,-1.77404 1.381125,-3.73857 0,-1.65497 -0.511969,-2.78606 -1.381125,-3.50043 -0.762,-0.63104 -1.797844,-0.9525 -3.321844,-0.9525 -0.892968,0 -1.726406,0.0714 -2.369343,0.1905 z m 1.750218,-7.73906 c 0.1905,-0.0357 0.464344,-0.0714 0.833438,-0.0714 1.631156,0 2.643187,1.02394 2.643187,3.09563 0,2.40506 -1.119187,3.4409 -2.797968,3.429 -0.238125,0 -0.500063,0 -0.678657,-0.0357 z"
         style="font-style:normal;font-variant:normal;font-weight:normal;font-stretch:normal;font-family:'Adobe Gothic Std';-inkscape-font-specification:'Adobe Gothic Std';fill:#004189;fill-opacity:1;stroke-width:0.26458332px"
         id="path1119"
         inkscape:connector-curvature="0" />
      <path
         d="m 66.312553,144.21314 -2.595562,9.15591 h 1.785937 l 0.631032,-2.41697 h 2.452687 l 0.654844,2.41697 h 1.845469 l -2.559844,-9.15591 z m 0.619125,3.30994 c 0.130969,-0.53578 0.28575,-1.28587 0.404813,-1.85737 h 0.03572 c 0.119062,0.55959 0.273843,1.29778 0.416718,1.86928 l 0.547688,2.08359 h -1.952625 z"
         style="font-style:normal;font-variant:normal;font-weight:normal;font-stretch:normal;font-family:'Adobe Gothic Std';-inkscape-font-specification:'Adobe Gothic Std';fill:#004189;fill-opacity:1;stroke-width:0.26458332px"
         id="path1121"
         inkscape:connector-curvature="0" />
      <path
         d="m 71.528793,144.21314 v 1.524 h 2.250281 v 7.63191 h 1.762125 v -7.63191 h 2.262188 v -1.524 z"
         style="font-style:normal;font-variant:normal;font-weight:normal;font-stretch:normal;font-family:'Adobe Gothic Std';-inkscape-font-specification:'Adobe Gothic Std';fill:#004189;fill-opacity:1;stroke-width:0.26458332px"
         id="path1123"
         inkscape:connector-curvature="0" />
    </g>
    <path
       style="fill:none;fill-opacity:1;fill-rule:evenodd;stroke:#004189;stroke-width:1.76499999;stroke-linecap:butt;stroke-linejoin:miter;stroke-miterlimit:4;stroke-dasharray:none;stroke-opacity:1"
       d="m 74.659989,153.3527 c -0.01428,1.09768 -1.468703,2.39604 -2.745653,2.3151 L 26.585,155.6845"
       id="path823"
       inkscape:connector-curvature="0"
       sodipodi:nodetypes="ccc" />
    <g
       id="g1222"
       transform="matrix(0.00884665,0,0,0.00884665,70.248839,135.54001)"
       style="fill:#004189;fill-opacity:1;stroke-width:29.90774727">
      <g
         id="g1220"
         transform="matrix(0.1,0,0,-0.1,0,511)"
         style="fill:#004189;fill-opacity:1;stroke-width:29.90774727">
        <g
           id="g1283"
           transform="translate(158.60976,-2246.9716)"
           style="fill:#004189;fill-opacity:1">
          <g
             id="g1288"
             transform="translate(0,791.81614)"
             style="fill:#004189;fill-opacity:1">
            <path
               id="path1218"
               d="M 3884.5864,2633.422 C 3370.6354,1740.1153 2948.3335,996.65234 2942.2651,981.24784 c -6.0685,-18.3609 229.5119,-30.6534 663.9506,-30.6534 h 676.0875 V -1044.2141 l 0.1942,-1990.8633 h 1101.4628 v 2006.2678 1979.55974 h 676.0876 c 422.3018,0 670.019,12.2924 663.9506,30.6533 -21.6286,60.99566 -1875.7733,3270.42746 -1891.0223,3270.42746 -9.1804,0 -434.4387,-728.0584 -948.3897,-1618.4089 z"
               inkscape:connector-curvature="0"
               style="fill:#004189;fill-opacity:1;stroke-width:29.90774536"
               sodipodi:nodetypes="ccsccccccscsc" />
            <path
               id="path1218-1-2"
               d="m 342.68235,2064.0405 c 863.51705,-562.57 1577.34005,-1033.25 1589.74305,-1044.22 13.742,-13.6 -190.576,-131.52 -577.656,-328.7701 L 752.38435,384.09044 1658.0964,-1393.2594 2497.711,-3035.0774 H 1288.2136 l -618.3132,1155.2395 -899.14605,1763.86834 -602.385,-306.97 c -376.26595,-191.74004 -602.56295,-293.25005 -605.49195,-274.14005 -8.421,64.16001 186.403,3765.58011 199.99,3772.50011 8.179,4.17 717.64295,-451.44 1579.81495,-1011.38 z"
               inkscape:connector-curvature="0"
               style="fill:#004189;fill-opacity:1;stroke-width:29.90782356"
               sodipodi:nodetypes="ccsccccccscsc" />
            <path
               id="path1218-1-2-3"
               d="m 9323.576,2064.0527 c -863.518,-562.57 -1577.3416,-1033.25 -1589.7446,-1044.22 -13.743,-13.6 190.5756,-131.52 577.6566,-328.77 l 602.385,-306.96 -905.713,-1777.36 -839.6146,-1641.8201 H 8378.043 l 618.314,1155.25 899.1475,1763.8701 602.3845,-306.97 c 376.267,-191.74 602.564,-293.25 605.493,-274.14 8.421,64.16 -186.403,3765.58 -199.99,3772.5 -8.179,4.17 -717.644,-451.44 -1579.816,-1011.38 z"
               inkscape:connector-curvature="0"
               style="fill:#004189;fill-opacity:1;stroke-width:29.90786171"
               sodipodi:nodetypes="ccsccccccscsc" />
          </g>
        </g>
      </g>
    </g>
  </g>
</svg>
